<?xml version="1.0" encoding="utf-8"?>
<!-- Generator: Adobe Illustrator 19.2.1, SVG Export Plug-In . SVG Version: 6.00 Build 0)  -->
<svg version="1.1" id="Layer_1" xmlns="http://www.w3.org/2000/svg" xmlns:xlink="http://www.w3.org/1999/xlink" x="0px" y="0px"
	 viewBox="0 0 63 58.9770012" enable-background="new 0 0 63 58.9770012" xml:space="preserve">
<rect fill="none" width="63" height="58.9769974"/>
<g id="Group_14" transform="translate(0 0)">
	<g id="Group_11" transform="translate(36.367 15.54)">
		<path id="Path_6" d="M20.4610004,7.0479999C20.4610004,2.3829999,16.5739994,0,11.276,0h-11.276v0.2449999l3.0609999,1.1160001
			c0.2930002,0.1,0.2930002,0.2,0.2930002,0.388v23.9569988c0,0.2000008,0,0.243-0.2930002,0.3899994l-3.0609999,1.1200008v0.243
			h10.5469999v-0.243l-3.256-1.1159992C6.9509997,26,6.9979997,25.8999996,6.9979997,25.710001v-11.999999
			C7.7865229,14.1521158,8.4803648,14.7450409,9.04,15.4549999l2.5279999,3.1589985
			c6.3650007,7.9710007,8.552001,9.2830009,11.7610006,9.2830009c1.1110458-0.0451622,2.215641-0.1917706,3.2999992-0.4379997
			v-0.243c-3.5-0.5330009-4.6650009-1.507-11.0799999-9.1350002l-3.1070004-3.6949997
			C16.6690006,13.9980001,20.4610004,11.3730001,20.4610004,7.0479999 M6.9979997,1.897
			c1.2855115-0.2143543,2.5857949-0.3280332,3.8890004-0.34c3.7419996,0,5.6859999,1.8,5.6859999,5.8789997
			c0,3.6459999-2.1870003,5.9790001-6.5120001,5.9790001c-1.026165,0.0093937-2.0511532-0.0719223-3.0630002-0.243V1.897z"/>
	</g>
	<g id="Group_12" transform="translate(0.001 0)">
		<path id="Path_7" d="M15.1619997,0h-3.7409992l0.6809998,1.8l-9.04,23.9120007
			c-0.0432611,0.1935692-0.1944301,0.3447399-0.388,0.3880005l-2.6729999,1.1189995v0.243h8.4539995v-0.243l-3.1089997-1.1690006
			c-0.1355247-0.0155525-0.2327809-0.1380272-0.2172275-0.2735519c0.0026217-0.0228424,0.00842-0.045208,0.0172276-0.0664482
			l3.013-8.4570007h9.823l3.2090015,8.4570007C21.2390022,25.9099998,21.2910023,26,20.9910011,26.0979996l-2.9090004,1.118v0.243
			h10.1049995v-0.243l-2.8179989-1.1159992C25.1690006,26.052,25.0760021,26,25.0290012,25.8099995L15.1619997,0z M12.882,4.2270002
			h0.1470003l4.3249998,11.4209995H8.7539988L12.882,4.2270002z"/>
	</g>
	<g id="Group_13" transform="translate(11.563 31.518)">
		<path id="Path_8" d="M15.1619997-0.0000004h-3.7410002l0.6810007,1.8l-9.04,23.9120007
			c-0.0432611,0.1935692-0.1944301,0.3447399-0.388,0.3880005l-2.6729999,1.1189995v0.243h8.4539995v-0.243l-3.1090002-1.1690006
			c-0.1355247-0.0155525-0.2327809-0.1380272-0.2172275-0.2735519c0.0026217-0.0228424,0.00842-0.045208,0.0172276-0.0664482
			l3.0129995-8.4570007h9.8230009L21.191,25.7099991C21.2390003,25.9099998,21.2910004,26,20.9910011,26.0979996l-2.9090023,1.118
			v0.243h10.1049995v-0.243l-2.8179989-1.1159992C25.1689987,26.052,25.0760002,26,25.0289993,25.8099995L15.1619997-0.0000004z
			 M12.882,4.2269998h0.1469994l4.3249989,11.4209995H8.7539988L12.882,4.2269998z"/>
	</g>
</g>
</svg>
