<?xml version="1.0" encoding="utf-8"?>
<!-- Generator: Adobe Illustrator 19.2.1, SVG Export Plug-In . SVG Version: 6.00 Build 0)  -->
<svg version="1.1" id="Layer_1" xmlns="http://www.w3.org/2000/svg" xmlns:xlink="http://www.w3.org/1999/xlink" x="0px" y="0px"
	 viewBox="0 0 14 14" style="enable-background:new 0 0 14 14;" xml:space="preserve">
<path d="M10,8.6c0.6-0.9,1-2,1-3.1c0-1.5-0.6-2.9-1.6-3.9C8.4,0.6,7,0,5.5,0C4,0,2.7,0.6,1.6,1.6C0.6,2.7,0,4,0,5.5
	C0,7,0.6,8.4,1.6,9.4c1,1,2.4,1.6,3.9,1.6c1.1,0,2.2-0.3,3.1-1l4,4l1.4-1.4L10,8.6z M8,8C6.7,9.3,4.4,9.3,3,8C2.4,7.3,2,6.4,2,5.5
	C2,4.6,2.4,3.7,3,3s1.5-1,2.5-1C6.4,2,7.3,2.4,8,3s1,1.5,1,2.5C9,6.4,8.6,7.3,8,8z"/>
</svg>
