<?xml version="1.0" encoding="utf-8"?>
<!-- Generator: Adobe Illustrator 19.2.1, SVG Export Plug-In . SVG Version: 6.00 Build 0)  -->
<svg version="1.1" xmlns="http://www.w3.org/2000/svg" xmlns:xlink="http://www.w3.org/1999/xlink" x="0px" y="0px"
	 viewBox="0 0 20 20" enable-background="new 0 0 20 20" xml:space="preserve">
<g id="Dark_Blue">
</g>
<g id="Logo__x2014__FIXED">
	<path d="M13.0963125,3.5727422c1.0020199,0,1.9075203,0.42362,2.5433598,1.1008499
		c0.7936411-0.1563001,1.539031-0.44662,2.2124109-0.8457398c-0.2604713,0.81358-0.8128109,1.49614-1.5321407,1.9274201
		c0.7047806-0.08425,1.3766193-0.2711902,2.0009708-0.5485001c-0.4665413,0.6986399-1.0579414,1.3122797-1.7382202,1.80408
		c0.0068989,0.1493897,0.0099602,0.2995701,0.0099602,0.4504499c0,4.6040902-3.5047607,9.9137001-9.9137001,9.9137001
		c-1.9680305,0-3.7989502-0.576849-5.3410401-1.5650597c0.27272,0.0321703,0.55003,0.0482597,0.83118,0.0482597
		c1.6324999,0,3.1347601-0.5569296,4.3275299-1.4915094c-1.5252399-0.0283804-2.81148-1.0357704-3.2550302-2.4200602
		c0.2122002,0.0406294,0.4305301,0.0628395,0.65499,0.0628395c0.31792,0,0.62588-0.0429201,0.9185202-0.12255
		c-1.5941901-0.3194895-2.7953901-1.7282896-2.7953901-3.4159393c0-0.0152903,0-0.0298805,0.0007701-0.0444202
		c0.4696,0.2612295,1.0066099,0.4182901,1.5781,0.4358702c-0.93537-0.6243-1.55053-1.6914401-1.55053-2.9003005
		c0-0.6381397,0.17237-1.2364497,0.47191-1.7512398c1.7182901,2.1082301,4.28615,3.4948101,7.1819,3.6403699
		C9.6421022,7.5961523,9.6114626,7.3302922,9.6114626,7.0568123C9.6114626,5.1332221,11.1719522,3.5727422,13.0963125,3.5727422
		 M13.0963125,1.5727422c-2.4838743,0-4.5874777,1.6596372-5.2599978,3.9279182
		C6.3734512,5.0404043,5.057416,4.1585164,4.0702624,2.9473422L2,1.2083334L0.7913024,3.2050421
		c-0.48624,0.8356502-0.74325,1.7890399-0.74325,2.7570899c0,0.7371001,0.1467965,1.4531503,0.4211392,2.1120877
		L0.0232825,8.3207922l-0.00357,0.1501904c0,1.4652872,0.5861917,2.8221045,1.5531652,3.8196192l-0.2359052,0.2663002
		c0.148996,0.4650049,0.3562157,0.8996954,0.6119618,1.2966919C1.8215584,13.8482466,0.0197125,14.375,0.0197125,14.375
		l0.23911,3.1188526c1.9204199,1.2306595,4.14047,1.8811493,6.4201303,1.8811493
		c7.2475696,0,11.6605377-5.7211838,11.9031391-11.4188347C19.1118622,7.4691057,19.791666,6.75,19.9841518,5.6666665
		l-1.0674858-1.25l0.5416679-2.2499998c0,0-3.1087532,0.2008758-3.3624821,0.2997055
		C15.2104406,1.8898261,14.1662197,1.5727422,13.0963125,1.5727422L13.0963125,1.5727422z"/>
</g>
<g id="Isolation_Mode">
</g>
</svg>
