<?xml version="1.0" encoding="utf-8"?>
<!-- Generator: Adobe Illustrator 19.2.1, SVG Export Plug-In . SVG Version: 6.00 Build 0)  -->
<svg version="1.1" id="Logo" xmlns="http://www.w3.org/2000/svg" xmlns:xlink="http://www.w3.org/1999/xlink" x="0px" y="0px"
	 viewBox="0 0 20 20" enable-background="new 0 0 20 20" xml:space="preserve">
<path d="M10,2c2.6656189,0,2.980957,0.0101624,4.0318604,0.0581055c0.9406738,0.0429077,1.4347839,0.1914368,1.7940369,0.3310547
	c0.4391785,0.1706848,0.7525024,0.3744812,1.0814819,0.7034912c0.3289795,0.328949,0.5327759,0.6422729,0.7034912,1.0815125
	c0.1396179,0.3591919,0.2881165,0.853241,0.3310242,1.7940063C17.9898376,7.019043,18,7.3343811,18,10
	s-0.0101624,2.980957-0.0581055,4.0318604c-0.0429077,0.9406738-0.1914368,1.4347839-0.3310547,1.7940369
	c-0.1706848,0.4391785-0.3744812,0.7525024-0.7034912,1.0814819c-0.328949,0.3289795-0.6422729,0.5327759-1.0814819,0.7034607
	c-0.3592224,0.1396179-0.8533325,0.288147-1.7940369,0.3310547C12.980957,17.9898376,12.6656189,18,10,18
	s-2.980957-0.0101624-4.0318604-0.0581055c-0.9407349-0.0429077-1.4347839-0.1914062-1.7940369-0.3310547
	c-0.4391785-0.1706848-0.7525024-0.3744812-1.0814819-0.7034912c-0.3289795-0.328949-0.5327759-0.6422729-0.7034607-1.0814819
	c-0.1396179-0.3592224-0.288147-0.8533325-0.3310547-1.7940369C2.0101624,12.980957,2,12.6656189,2,10
	s0.0101624-2.980957,0.0581055-4.0318604c0.0429077-0.9407349,0.1914062-1.4347839,0.3310547-1.7940369
	C2.559845,3.7349243,2.7636414,3.4216003,3.0926514,3.0926208c0.328949-0.3289795,0.6422729-0.5327759,1.0815125-0.7034912
	c0.3591919-0.1396179,0.853241-0.2881165,1.7940063-0.3310242C7.019043,2.0101624,7.3343811,2,10,2 M10,0
	C7.2841492,0,6.943634,0.0115051,5.8770142,0.0601807C4.8126221,0.1087341,4.0856934,0.277771,3.4496155,0.5249939
	C2.7920227,0.7805481,2.2343445,1.122467,1.6784058,1.6784058S0.7805481,2.7920227,0.5249939,3.4496155
	C0.277771,4.0856934,0.1087341,4.8126221,0.0601807,5.8770142C0.0115051,6.943634,0,7.2841492,0,10
	s0.0115051,3.056366,0.0601807,4.1229858c0.0485535,1.0643921,0.2175903,1.7912903,0.4648132,2.4273987
	c0.2555542,0.6575928,0.5974731,1.215271,1.1534119,1.7712097s1.1136169,0.8978577,1.7712097,1.1534119
	c0.6360779,0.2472229,1.3630066,0.4162598,2.4273987,0.4648132C6.943634,19.9884949,7.2841492,20,10,20
	s3.056366-0.0115051,4.1229858-0.0601807c1.0643921-0.0485535,1.7912903-0.2175903,2.4273987-0.4648132
	c0.6575928-0.2555542,1.215271-0.5974731,1.7712097-1.1534119s0.8978577-1.1136169,1.1534119-1.7712097
	c0.2472229-0.6361084,0.4162598-1.3630066,0.4648132-2.4273987C19.9884949,13.056366,20,12.7158508,20,10
	s-0.0115051-3.056366-0.0601807-4.1229858c-0.0485535-1.0643921-0.2175903-1.7913208-0.4648132-2.4273987
	c-0.2555542-0.6575928-0.5974731-1.215271-1.1534119-1.7712097s-1.1136169-0.8978577-1.7712097-1.1534119
	c-0.6361084-0.2472229-1.3630066-0.4162598-2.4273987-0.4648132C13.056366,0.0115051,12.7158508,0,10,0L10,0z"/>
<path d="M10,6.8648682c1.7287292,0,3.1351318,1.4064026,3.1351318,3.1351318S11.7287292,13.1351318,10,13.1351318
	S6.8648682,11.7287292,6.8648682,10S8.2712708,6.8648682,10,6.8648682 M10,4.8648682
	c-2.8360596,0-5.1351318,2.2990723-5.1351318,5.1351318S7.1639404,15.1351318,10,15.1351318S15.1351318,12.8360596,15.1351318,10
	S12.8360596,4.8648682,10,4.8648682L10,4.8648682z"/>
<circle cx="15.338026" cy="4.6619735" r="1.1999996"/>
</svg>
